<?xml version="1.0" encoding="iso-8859-1"?>
<!-- Generator: Adobe Illustrator 18.1.1, SVG Export Plug-In . SVG Version: 6.00 Build 0)  -->
<svg version="1.1" id="Capa_1" xmlns="http://www.w3.org/2000/svg" xmlns:xlink="http://www.w3.org/1999/xlink" x="0px" y="0px"
	 viewBox="0 0 51.114 51.114" style="enable-background:new 0 0 51.114 51.114;" xml:space="preserve">
<g>
	<g>
		<path style="fill:#fff;" d="M41.945,16.388C41.943,7.337,34.609,0,25.56,0C16.507,0,9.169,7.337,9.169,16.388
			c0,7.812,12.208,28.683,15.553,34.251c0.176,0.295,0.494,0.475,0.837,0.475c0.343,0,0.662-0.18,0.836-0.474
			C29.738,45.072,41.945,24.2,41.945,16.388z M25.559,29.068c-6.991,0-12.683-5.688-12.683-12.681
			c0-6.992,5.69-12.681,12.683-12.681s12.679,5.689,12.679,12.681C38.238,23.379,32.551,29.068,25.559,29.068z"/>
	</g>
</g>
<g>
</g>
<g>
</g>
<g>
</g>
<g>
</g>
<g>
</g>
<g>
</g>
<g>
</g>
<g>
</g>
<g>
</g>
<g>
</g>
<g>
</g>
<g>
</g>
<g>
</g>
<g>
</g>
<g>
</g>
</svg>
